<svg aria-hidden="true" style="position: absolute; width: 0; height: 0; overflow: hidden;" version="1.1" xmlns="http://www.w3.org/2000/svg" xmlns:xlink="http://www.w3.org/1999/xlink">
<defs>
<symbol id="icon-star" viewBox="0 0 34 32">
<path fill="#fff" style="fill: var(--color1, #fff)" d="M16.437 25.274l9.642 5.755-2.559-10.846 8.519-7.298-11.218-0.941-4.384-10.229-4.384 10.229-11.218 0.941 8.519 7.298-2.559 10.846 9.642-5.755z"></path>
</symbol>
<symbol id="icon-facebook" viewBox="0 0 17 32">
<path d="M15.467 17.474l0.829-5.447h-5.27v-3.553c0-1.539 0.711-2.961 3.079-2.961h2.428v-4.678c0 0-2.191-0.414-4.263-0.414-4.322 0-7.164 2.664-7.164 7.401v4.204h-4.855v5.447h4.855v13.263h5.921v-13.263h4.441z"></path>
</symbol>
<symbol id="icon-twitter" viewBox="0 0 36 32">
<path d="M32.273 9.188c1.406-1.055 2.672-2.32 3.656-3.797-1.266 0.563-2.742 0.984-4.219 1.125 1.547-0.914 2.672-2.32 3.234-4.078-1.406 0.844-3.024 1.477-4.641 1.828-1.406-1.477-3.305-2.32-5.414-2.32-4.078 0-7.383 3.305-7.383 7.383 0 0.563 0.070 1.125 0.211 1.688-6.117-0.352-11.602-3.305-15.258-7.734-0.633 1.055-0.984 2.32-0.984 3.727 0 2.531 1.266 4.781 3.305 6.117-1.195-0.070-2.391-0.352-3.375-0.914v0.070c0 3.586 2.531 6.539 5.906 7.242-0.563 0.141-1.266 0.281-1.898 0.281-0.492 0-0.914-0.070-1.406-0.141 0.914 2.953 3.656 5.063 6.891 5.133-2.531 1.969-5.695 3.164-9.141 3.164-0.633 0-1.195-0.070-1.758-0.141 3.234 2.109 7.102 3.305 11.32 3.305 13.57 0 20.953-11.18 20.953-20.953 0-0.352 0-0.633 0-0.984z"></path>
</symbol>
<symbol id="icon-linkedin" viewBox="0 0 32 32">
<path d="M7.281 32v-21.023h-6.539v21.023h6.539zM3.977 8.164c2.109 0 3.797-1.758 3.797-3.867 0-2.039-1.688-3.727-3.797-3.727-2.039 0-3.727 1.688-3.727 3.727 0 2.109 1.688 3.867 3.727 3.867zM31.68 32h0.070v-11.531c0-5.625-1.266-9.984-7.875-9.984-3.164 0-5.273 1.758-6.188 3.375h-0.070v-2.883h-6.258v21.023h6.539v-10.406c0-2.742 0.492-5.344 3.867-5.344s3.445 3.094 3.445 5.555v10.195h6.469z"></path>
</symbol>
<symbol id="icon-calendar" viewBox="0 0 32 32">
<path stroke-linejoin="round" stroke-linecap="round" stroke-miterlimit="4" stroke-width="3.5556" d="M25.333 5.333h-18.667c-1.473 0-2.667 1.194-2.667 2.667v18.667c0 1.473 1.194 2.667 2.667 2.667h18.667c1.473 0 2.667-1.194 2.667-2.667v-18.667c0-1.473-1.194-2.667-2.667-2.667z"></path>
<path stroke-linejoin="round" stroke-linecap="round" stroke-miterlimit="4" stroke-width="3.5556" d="M21.333 2.667v5.333"></path>
<path stroke-linejoin="round" stroke-linecap="round" stroke-miterlimit="4" stroke-width="3.5556" d="M10.667 2.667v5.333"></path>
<path stroke-linejoin="round" stroke-linecap="round" stroke-miterlimit="4" stroke-width="3.5556" d="M4 13.333h24"></path>
</symbol>
<symbol id="icon-exclamation" viewBox="0 0 32 32">
<path fill="#5c8692" style="fill: var(--color2, #5c8692)" d="M30.667 16l-3.253-3.707 0.453-4.907-4.813-1.093-2.52-4.24-4.533 1.947-4.533-1.947-2.52 4.24-4.813 1.080 0.453 4.907-3.253 3.72 3.253 3.707-0.453 4.92 4.813 1.093 2.52 4.24 4.533-1.96 4.533 1.947 2.52-4.24 4.813-1.093-0.453-4.907 3.253-3.707zM17.333 22.667h-2.667v-2.667h2.667v2.667zM17.333 17.333h-2.667v-8h2.667v8z"></path>
</symbol>
<symbol id="icon-head" viewBox="0 0 22 32">
<path fill="#7a9ca5" style="fill: var(--color3, #7a9ca5)" d="M13.51 19.381c-0.179-0.201-0.486-0.218-0.687-0.039-0.293 0.262-1.028 0.526-2.009 0.526s-1.717-0.264-2.009-0.526c-0.201-0.179-0.508-0.162-0.687 0.039s-0.162 0.508 0.039 0.687c0.542 0.484 1.536 0.773 2.658 0.773s2.116-0.289 2.658-0.773c0.201-0.179 0.218-0.486 0.039-0.687z"></path>
<path fill="#7a9ca5" style="fill: var(--color3, #7a9ca5)" d="M9.663 15.093c-0.181-0.199-0.489-0.213-0.687-0.031-0.141 0.128-0.531 0.266-1.057 0.266s-0.916-0.138-1.057-0.266c-0.199-0.181-0.506-0.167-0.687 0.031s-0.167 0.506 0.031 0.687c0.357 0.326 0.997 0.521 1.713 0.521s1.356-0.194 1.713-0.521c0.198-0.181 0.213-0.489 0.031-0.687z"></path>
<path fill="#7a9ca5" style="fill: var(--color3, #7a9ca5)" d="M10.13 12.813c-0.456-0.296-1.282-0.472-2.211-0.472s-1.756 0.176-2.211 0.472c-0.225 0.146-0.289 0.447-0.143 0.672 0.093 0.143 0.249 0.221 0.408 0.221 0.091 0 0.183-0.026 0.264-0.079 0.242-0.157 0.856-0.315 1.682-0.315s1.44 0.158 1.682 0.315c0.226 0.146 0.527 0.083 0.672-0.143 0.146-0.224 0.082-0.526-0.143-0.672z"></path>
<path fill="#7a9ca5" style="fill: var(--color3, #7a9ca5)" d="M15.451 15.093c-0.181-0.199-0.489-0.213-0.687-0.031-0.141 0.128-0.531 0.266-1.057 0.266s-0.916-0.138-1.057-0.266c-0.198-0.181-0.506-0.167-0.687 0.031s-0.167 0.506 0.031 0.687c0.357 0.326 0.998 0.521 1.713 0.521s1.355-0.194 1.713-0.521c0.199-0.181 0.213-0.489 0.031-0.687z"></path>
<path fill="#7a9ca5" style="fill: var(--color3, #7a9ca5)" d="M15.92 12.813c-0.456-0.296-1.282-0.472-2.212-0.472s-1.756 0.176-2.211 0.472c-0.226 0.146-0.289 0.447-0.143 0.672s0.447 0.289 0.673 0.143c0.242-0.157 0.856-0.315 1.682-0.315s1.44 0.158 1.682 0.315c0.082 0.053 0.174 0.079 0.264 0.079 0.159 0 0.315-0.078 0.408-0.221 0.146-0.226 0.082-0.527-0.143-0.673z"></path>
<path fill="#7a9ca5" style="fill: var(--color3, #7a9ca5)" d="M20.238 28.7c-0.859-0.73-2.030-1.132-3.297-1.132-1.668 0-2.822-0.372-3.308-0.565v-2.205c2.501-0.907 4.444-2.983 5.168-5.565 1.566-0.196 2.782-1.538 2.782-3.153 0-1.493-1.056-2.776-2.476-3.1v-1.077c0.562-1.969 0.527-3.904 0.396-5.186-0.074-0.732-0.187-1.335-0.268-1.711-0.076-0.349-0.124-0.538-0.161-0.647-0.008-0.029-0.017-0.057-0.030-0.084-0.539-1.142-1.497-2.115-2.723-2.844-0.025-0.018-0.051-0.033-0.079-0.046-1.507-0.874-3.408-1.384-5.429-1.384-1.592 0-3.149 0.315-4.502 0.911-0.246 0.108-0.357 0.395-0.249 0.641s0.395 0.357 0.641 0.249c1.231-0.542 2.652-0.828 4.11-0.828 1.613 0 3.134 0.347 4.396 0.954-0.591 0.509-1.295 0.999-2.136 1.487-0.232 0.135-0.311 0.433-0.176 0.665 0.090 0.156 0.253 0.242 0.421 0.242 0.083 0 0.167-0.021 0.244-0.066 1.019-0.591 1.854-1.19 2.544-1.823 0.844 0.553 1.516 1.241 1.943 2.029-0.017 0.027-0.034 0.053-0.052 0.080-0.012 0.018-0.024 0.036-0.036 0.053-1.065 1.551-3.325 3.037-6.594 4.337-0.019 0.008-0.039 0.015-0.059 0.023-0.071 0.028-0.143 0.056-0.214 0.084-3.252 1.256-6.569 1.994-7.737 2.234-0.266-1.077-0.349-2.139-0.34-3.089 0.404-0.081 0.807-0.197 1.2-0.311 0.308-0.089 0.627-0.181 0.934-0.253 0.005-0.001 0.010-0.003 0.015-0.004 1.999-0.529 3.967-1.244 6.38-2.319 0.246-0.109 0.356-0.397 0.246-0.642s-0.397-0.356-0.642-0.246c-2.361 1.051-4.281 1.75-6.226 2.265-0.331 0.077-0.66 0.172-0.978 0.264-0.304 0.088-0.598 0.173-0.886 0.24 0.106-1.359 0.364-2.335 0.416-2.522 0.337-0.698 0.869-1.333 1.584-1.888 0.213-0.164 0.251-0.47 0.086-0.683s-0.47-0.251-0.683-0.086c-0.848 0.659-1.482 1.424-1.884 2.275-0.010 0.022-0.019 0.044-0.026 0.067-0.046 0.153-1.117 3.779-0.037 7.562v1.077c-1.419 0.322-2.476 1.606-2.476 3.099 0 1.615 1.218 2.957 2.783 3.153 0.723 2.582 2.667 4.658 5.168 5.565v2.205c-0.487 0.194-1.64 0.566-3.308 0.566-1.268 0-2.438 0.402-3.297 1.132-0.867 0.736-1.345 1.736-1.345 2.813 0 0.269 0.218 0.486 0.486 0.486h20.569c0.269 0 0.486-0.218 0.486-0.486 0-1.077-0.478-2.076-1.346-2.814zM19.027 18.149c0.053-0.381 0.080-0.766 0.080-1.151v-3.009c0.875 0.296 1.504 1.131 1.504 2.091 0 1.001-0.673 1.851-1.59 2.118 0.003-0.016 0.004-0.033 0.006-0.049zM1.015 16.081c0-0.959 0.629-1.794 1.504-2.091v3.009c0 0.385 0.027 0.769 0.080 1.151 0.002 0.016 0.004 0.033 0.006 0.049-0.917-0.268-1.59-1.117-1.59-2.118zM18.23 5.824c0.011-0.013 0.023-0.026 0.034-0.038 0.031-0.035 0.061-0.070 0.090-0.105 0.006-0.007 0.012-0.014 0.017-0.020 0.221 1.229 0.446 3.391-0.102 5.611-0.968-0.198-3.413-0.737-6.065-1.63 2.779-1.15 4.796-2.428 6.026-3.817zM3.609 18.306c-0.001-0.005-0.002-0.011-0.003-0.016-0.077-0.426-0.114-0.859-0.114-1.291v-4.762c0.004-0.001 0.009-0.002 0.014-0.003 0.753-0.15 1.502-0.326 2.247-0.512 0.785-0.196 1.566-0.409 2.341-0.639 0.508-0.151 1.014-0.31 1.517-0.478 0.009-0.003 0.018-0.006 0.027-0.009h2.35c2.712 0.907 5.202 1.451 6.146 1.641v4.762c0 0.432-0.038 0.866-0.114 1.292-0.001 0.005-0.002 0.010-0.003 0.015-0.497 2.753-2.539 4.974-5.193 5.734-0.004 0.001-0.009 0.003-0.013 0.004-0.649 0.183-1.324 0.277-1.999 0.277-0.673 0-1.353-0.091-2-0.277-0.003-0.001-0.006-0.002-0.009-0.003-2.654-0.759-4.697-2.981-5.196-5.734zM1.061 31.027c0.116-0.601 0.446-1.151 0.956-1.586 0.683-0.581 1.631-0.9 2.668-0.9 2.503 0 3.961-0.759 4.022-0.792 0.159-0.084 0.258-0.249 0.258-0.429 0 0 0-2.234 0-2.234 0.001 0.186 1.749 0.207 1.848 0.207 0.621 0 1.241-0.069 1.848-0.207v2.234c0 0.18 0.099 0.345 0.258 0.429 0.061 0.032 1.519 0.792 4.022 0.792 1.037 0 1.984 0.319 2.668 0.9 0.511 0.434 0.841 0.985 0.956 1.586l-19.503-0.001z"></path>
</symbol>
<symbol id="icon-quality" viewBox="0 0 32 32">
<path fill="#7a9ca5" style="fill: var(--color3, #7a9ca5)" d="M4.938 25.241c-0.095 0.241-0.326 0.388-0.571 0.388-0.075 0-0.152-0.014-0.226-0.044-2.348-0.932-3.773-2.131-4.121-3.465-0.086-0.328 0.11-0.665 0.439-0.75s0.664 0.111 0.749 0.44c0.242 0.926 1.444 1.861 3.387 2.633 0.314 0.125 0.469 0.482 0.344 0.798zM7.024 18.803c0.116 0.098 0.257 0.147 0.397 0.147 0.173 0 0.346-0.074 0.467-0.216 0.22-0.258 0.189-0.646-0.069-0.867-0.305-0.26-0.602-0.535-0.885-0.819-2.697-2.703-4.109-6.138-3.681-8.876 1.151-0.181 2.424-0.035 3.714 0.397 0.054 0.028 0.114 0.049 0.176 0.061 1.718 0.609 3.457 1.718 4.967 3.231 0.38 0.38 0.742 0.785 1.075 1.2 0.213 0.264 0.599 0.306 0.863 0.093s0.305-0.6 0.093-0.865c-0.361-0.45-0.753-0.886-1.164-1.298-1.551-1.554-3.34-2.719-5.139-3.406-0.044-1.112 0.144-2.128 0.542-2.928 1.013 0.221 2.062 0.839 3.005 1.774-0.131 0.525-0.236 1.068-0.312 1.624-0.046 0.337 0.189 0.646 0.525 0.693s0.645-0.189 0.691-0.526c0.413-3.013 1.718-5.543 3.524-6.865 1.806 1.321 3.111 3.851 3.524 6.863 0.046 0.337 0.355 0.572 0.691 0.526s0.571-0.357 0.525-0.693c-0.076-0.557-0.181-1.098-0.312-1.623 0.943-0.936 1.992-1.554 3.005-1.774 0.397 0.8 0.586 1.816 0.542 2.928-1.799 0.688-3.588 1.853-5.139 3.406-0.411 0.412-0.802 0.849-1.164 1.298-0.212 0.264-0.171 0.652 0.093 0.865s0.651 0.171 0.863-0.093c0.334-0.415 0.696-0.819 1.075-1.2 1.51-1.513 3.249-2.623 4.966-3.231 0.063-0.012 0.123-0.032 0.177-0.061 1.29-0.431 2.564-0.578 3.714-0.397 0.428 2.739-0.984 6.174-3.681 8.876-0.283 0.284-0.581 0.559-0.885 0.819-0.258 0.22-0.289 0.608-0.070 0.867s0.607 0.29 0.865 0.070c0.329-0.281 0.651-0.579 0.957-0.886 3.118-3.123 4.662-7.209 3.936-10.408-0.052-0.231-0.232-0.41-0.463-0.464-1.24-0.283-2.614-0.222-4.014 0.141-0.013-1.354-0.335-2.587-0.932-3.537-0.126-0.2-0.355-0.31-0.59-0.283-1.233 0.143-2.508 0.758-3.654 1.753-0.792-2.219-2.091-4.010-3.705-5.027-0.199-0.126-0.454-0.126-0.654 0-1.614 1.018-2.913 2.808-3.705 5.027-1.146-0.995-2.419-1.61-3.654-1.753-0.235-0.027-0.463 0.083-0.589 0.283-0.596 0.949-0.917 2.182-0.931 3.537-1.399-0.364-2.774-0.424-4.014-0.141-0.23 0.052-0.41 0.233-0.463 0.464-0.726 3.199 0.819 7.284 3.936 10.408 0.305 0.306 0.627 0.603 0.957 0.885zM6.733 23.612c0.112-0.321-0.057-0.671-0.377-0.783-1.852-0.649-2.957-1.469-2.957-2.193 0-0.468 0.482-0.997 1.356-1.49 0.295-0.166 0.4-0.541 0.234-0.837s-0.54-0.401-0.835-0.234c-1.316 0.741-1.982 1.603-1.982 2.562 0 1.328 1.307 2.488 3.78 3.355 0.067 0.024 0.135 0.035 0.203 0.035 0.254-0.001 0.491-0.16 0.579-0.414zM25.151 22.872c-0.321 0.109-0.492 0.458-0.384 0.78 0.087 0.256 0.325 0.417 0.581 0.417 0.065 0 0.132-0.011 0.197-0.033 2.56-0.871 3.914-2.047 3.914-3.401 0-0.925-0.621-1.76-1.846-2.484-0.292-0.172-0.668-0.075-0.84 0.218s-0.075 0.67 0.217 0.842c0.801 0.473 1.242 0.979 1.242 1.424-0.001 0.733-1.181 1.59-3.081 2.237zM21.901 27.366c0 0.623-0.506 1.13-1.128 1.13-0.339 0-0.614 0.275-0.614 0.615s0.275 0.615 0.614 0.615c1.299 0 2.355-1.058 2.355-2.36 0-0.34-0.275-0.615-0.614-0.615s-0.614 0.275-0.614 0.615zM31.108 21.37c-0.328-0.085-0.664 0.111-0.749 0.44-0.242 0.926-1.444 1.861-3.386 2.633-0.315 0.125-0.469 0.483-0.344 0.799 0.095 0.241 0.327 0.388 0.571 0.388 0.075 0 0.152-0.014 0.226-0.044 2.348-0.933 3.773-2.132 4.122-3.465 0.085-0.328-0.112-0.664-0.44-0.75zM20.203 21.637c0 0.335-0.272 0.607-0.606 0.607-0.339 0-0.614 0.275-0.614 0.615s0.275 0.615 0.614 0.615c1.011 0 1.833-0.824 1.833-1.837 0-0.34-0.275-0.615-0.614-0.615s-0.614 0.276-0.614 0.615zM18.449 17.71h0.16c0.339 0 0.614-0.275 0.614-0.615s-0.275-0.615-0.614-0.615h-0.16c-0.339 0-0.614 0.275-0.614 0.615s0.275 0.615 0.614 0.615zM24.789 24.76c0.562 0.782 0.86 1.703 0.86 2.665 0 2.522-2.047 4.575-4.565 4.575h-10.536c-2.517 0-4.565-2.052-4.565-4.574 0-1.674 0.925-3.205 2.361-4.003-0.201-0.455-0.312-0.959-0.312-1.488 0-1.609 1.032-2.981 2.467-3.487-0.317-0.46-0.503-1.017-0.503-1.617 0-1.572 1.277-2.851 2.845-2.851h5.951c1.569 0 2.845 1.279 2.845 2.851s-1.276 2.851-2.845 2.851h-5.95c-0.382 0-0.746-0.076-1.080-0.213-0.014 0.001-0.028 0.002-0.042 0.002-1.356 0-2.459 1.105-2.459 2.464 0 0.508 0.154 0.982 0.419 1.375 0.021 0.025 0.040 0.052 0.057 0.081 0.448 0.611 1.171 1.009 1.984 1.009h8.195c1.356 0 2.459-1.105 2.459-2.465 0-0.732-0.325-1.423-0.893-1.896-0.261-0.217-0.296-0.605-0.080-0.866s0.604-0.297 0.865-0.080c0.848 0.707 1.336 1.743 1.336 2.841 0 2.037-1.654 3.694-3.687 3.694h-8.195c-1.062 0-2.021-0.453-2.695-1.176-1.099 0.57-1.813 1.717-1.813 2.973 0 1.844 1.497 3.345 3.338 3.345h10.536c1.84 0 3.338-1.501 3.338-3.344 0-0.702-0.217-1.375-0.628-1.946-0.198-0.275-0.136-0.66 0.139-0.859s0.658-0.137 0.857 0.138zM11.222 16.831c0 0.894 0.726 1.621 1.618 1.621h5.95c0.892 0 1.618-0.727 1.618-1.621s-0.726-1.621-1.618-1.621h-5.95c-0.892 0-1.618 0.727-1.618 1.621z"></path>
</symbol>
<symbol id="icon-bottles" viewBox="0 0 27 32">
<path fill="#7a9ca5" style="fill: var(--color3, #7a9ca5)" d="M5.171 12.764c0.345 0 0.625-0.28 0.625-0.625s-0.28-0.625-0.625-0.625c-0.345 0-0.625 0.28-0.625 0.625s0.28 0.625 0.625 0.625z"></path>
<path fill="#7a9ca5" style="fill: var(--color3, #7a9ca5)" d="M26.298 11.485c-0.393-0.452-0.975-0.71-1.595-0.71h-5.053v-1.070c0-1.566-1.275-2.841-2.841-2.841h-0.489v-0.080c0-1.12-0.888-2.035-1.996-2.081v-1.065c0.464-0.109 0.867-0.265 1.206-0.47 0.63-0.382 0.902-0.844 1.020-1.163 0.263-0.714-0.014-1.533-0.63-1.863-0.175-0.093-0.361-0.141-0.553-0.141-0.418 0-0.81 0.232-1.047 0.612-0.12 0.078-0.578 0.315-1.745 0.315h-2.908c-1.477 0-2.395 1.010-2.395 2.636 0 0.797 0.574 1.446 1.28 1.446 0.629 0 1.154-0.515 1.26-1.191h1.397v0.885c-1.109 0.046-1.996 0.962-1.996 2.081v0.080h-0.49c-1.567 0-2.841 1.275-2.841 2.841v0.042h-1.831c-0.812 0-1.473 0.661-1.473 1.473v2.784c-0.444 0.38-0.726 0.943-0.726 1.571v0.918c-0.842 0.601-1.415 1.562-1.489 2.663-0.031 0.483-0.054 0.996-0.065 1.521-0.006 0.266 0.205 0.486 0.471 0.493s0.486-0.205 0.492-0.471c0.011-0.512 0.033-1.009 0.064-1.48 0.064-0.973 0.664-1.794 1.497-2.183 0.006-0.002 0.012-0.006 0.017-0.008 0.333-0.151 0.702-0.233 1.068-0.233h2.526c0.367 0 0.734 0.081 1.068 0.233 0.006 0.002 0.012 0.006 0.017 0.008 0.843 0.391 1.436 1.255 1.497 2.183 0.049 0.731 0.073 1.483 0.073 2.233 0 0.355-0.010 0.709-0.017 1.064-0.001 0.012-0.001 0.025-0.001 0.038-0.004 0.125-0.353 0.471-0.426 0.601-0.12 0.213-0.217 0.437-0.288 0.67-0.163 0.53-0.197 1.088-0.207 1.639-0.014 0.825 0.068 1.653 0.25 2.458 0.001 0.004 0.001 0.007 0.002 0.011-0.304 0.837-1.087 1.391-1.984 1.391h-2.494c-0.992 0-1.861-0.707-2.068-1.682-0.328-1.546-0.524-3.242-0.584-5.040-0.009-0.266-0.233-0.475-0.497-0.465-0.266 0.009-0.475 0.231-0.465 0.497 0.062 1.855 0.265 3.607 0.604 5.208 0.3 1.417 1.567 2.446 3.010 2.446h2.495c0.938 0 1.79-0.415 2.36-1.1 0.304 0.81 0.714 1.562 1.221 2.226 0.091 0.119 0.233 0.189 0.383 0.189h9.091c0.15 0 0.292-0.070 0.383-0.189 0.147-0.192 0.285-0.392 0.415-0.597h4.142c0.266 0 0.482-0.215 0.482-0.482v-3.977l1.144-8.262c0.036-0.264-0.148-0.507-0.411-0.543s-0.507 0.147-0.543 0.411l-0.915 6.609h-2.518c-0.033-0.317-0.102-0.629-0.214-0.927-0.343-0.915-1.046-1.636-1.926-2.013l-0.017-0.127-1.2-8.668c-0.004-0.031-0.007-0.062-0.008-0.093 0-0.002 0-0.003 0-0.005-0.009-0.312 0.159-0.593 0.402-0.777 0.196-0.148 0.452-0.223 0.696-0.223h5.319c0.341 0 0.658 0.138 0.868 0.38 0.179 0.206 0.258 0.461 0.222 0.718l-0.443 3.198c-0.036 0.264 0.148 0.507 0.411 0.543s0.507-0.148 0.543-0.411l0.443-3.198c0.074-0.538-0.086-1.065-0.451-1.483zM9.667 2.853c-0.222 0-0.498 0.025-0.658 0.201-0.125 0.138-0.14 0.331-0.14 0.508 0 0.284-0.167 0.482-0.317 0.482s-0.317-0.198-0.317-0.482c0-1.455 0.897-1.672 1.431-1.672h2.908c0.449 0 0.916-0.028 1.362-0.125 0.385-0.083 0.815-0.207 1.097-0.496 0.103-0.106 0.153-0.306 0.333-0.306 0.032 0 0.064 0.009 0.096 0.026 0.17 0.091 0.284 0.402 0.181 0.681-0.083 0.225-0.441 0.86-1.87 1.094-0.004 0.001-0.007 0.001-0.011 0.001-0.393 0.064-0.791 0.087-1.189 0.087l-2.908-0.001zM13.359 3.785v0.914h-1.186v-0.883c0.001 0.021 1.186-0.022 1.186-0.031zM11.297 5.663h2.939c0.617 0 1.12 0.502 1.12 1.12v0.080h-5.178v-0.080c0-0.617 0.502-1.12 1.12-1.12zM3.543 11.222c0-0.001 0-0.002 0-0.002 0-0.281 0.228-0.509 0.509-0.509h2.239c0.011 0 0.022 0.001 0.032 0.002 0.002 0 0.004 0.001 0.006 0.001 0.565 0.041 0.471 0.699 0.471 1.094 0 0.48 0 0.959 0 1.439 0 0.099 0 0.198 0 0.298-0.124-0.023-0.251-0.035-0.377-0.035 0 0-2.502 0-2.503 0-0.117 0-0.253 0.034-0.376 0.030-0.036-0.767-0.001-1.547-0.001-2.316zM7.526 16.004c0-0.14-0.957-0.172-1.093-0.172h-2.524c-0.37 0-0.741 0.059-1.092 0.172 0 0 0-0.429 0-0.43 0-0.596 0.507-1.104 1.104-1.104h2.503c0.362 0 0.712 0.188 0.915 0.488 0.211 0.313 0.188 0.686 0.188 1.046zM21.014 29.396c0.007-0.024 0.013-0.043 0.017-0.054 0.167-0.473 0.317-0.954 0.426-1.444 0.173-0.774 0.257-1.571 0.248-2.364h2.226v4.317c0 0-3.133 0-3.134 0 0.083 0.001 0.174-0.314 0.217-0.454zM20.497 23.892h-2.275c-0.266 0-0.482 0.215-0.482 0.482s0.215 0.482 0.482 0.482h2.487c0.002 0.020 0.003 0.041 0.005 0.062 0.15 1.996-0.313 4.077-1.484 5.721h-8.604c-0.591-0.828-1.018-1.8-1.266-2.85-0.225-0.956-0.296-1.954-0.214-2.933h7.149c0.266 0 0.482-0.215 0.482-0.482s-0.215-0.482-0.482-0.482h-6.938c0.125-0.296 0.305-0.567 0.534-0.801 0.481-0.491 1.168-0.784 1.863-0.784h6.346c0.22 0 0.438 0.028 0.647 0.083 0.772 0.201 1.434 0.752 1.75 1.502zM18.686 10.888c0-0.003-0.575 0.298-0.63 0.341-0.946 0.754-0.702 1.855-0.558 2.895l1.002 7.241c-0.003-0.001-0.006-0.001-0.010-0.001-0.055-0.006-0.11-0.011-0.166-0.014-0.012-0.001-0.024-0.002-0.036-0.002-0.062-0.003-0.125-0.006-0.189-0.006h-6.345c-0.306 0-0.61 0.040-0.906 0.117-0.144 0.038-0.286 0.084-0.423 0.138-0.051 0.020-0.372 0.132-0.373 0.174 0.001-0.107 0.001-0.214 0.001-0.32 0-0.772-0.025-1.544-0.075-2.297-0.036-0.549-0.204-1.090-0.481-1.565-0.126-0.215-0.275-0.418-0.443-0.602-0.087-0.096-0.179-0.186-0.276-0.272-0.036-0.032-0.289-0.195-0.289-0.229v-0.914c0-0.594-0.269-1.184-0.726-1.573v-2.782c0-0.035-0.002-0.069-0.004-0.102-0.001-0.007-0.001-0.014-0.002-0.021-0.047-0.562-0.41-1.036-0.912-1.241v-0.151c0-1.035 0.843-1.878 1.878-1.878h8.084c1.035 0 1.878 0.843 1.878 1.878 0.001 0.001 0.001 1.185 0.001 1.185z"></path>
</symbol>
<symbol id="icon-marks" viewBox="0 0 41 32">
<path fill="#fff" style="fill: var(--color1, #fff)" d="M40.211 16.208l-15.792 15.792v-31.584h15.792v15.792z"></path>
<path fill="#fff" style="fill: var(--color1, #fff)" d="M15.996 16.208l-15.792 15.792v-31.584h15.792v15.792z"></path>
</symbol>
<symbol id="icon-user" viewBox="0 0 28 32">
<path fill="none" stroke="#7a9ca5" style="stroke: var(--color3, #7a9ca5)" stroke-linejoin="round" stroke-linecap="round" stroke-miterlimit="4" stroke-width="1.3617" d="M23.262 27.52v-2.56c0-1.358-0.49-2.66-1.363-3.62s-2.056-1.5-3.29-1.5h-9.305c-1.234 0-2.417 0.539-3.29 1.5s-1.363 2.262-1.363 3.62v2.56"></path>
<path fill="none" stroke="#7a9ca5" style="stroke: var(--color3, #7a9ca5)" stroke-linejoin="round" stroke-linecap="round" stroke-miterlimit="4" stroke-width="1.3617" d="M13.957 14.72c2.569 0 4.653-2.292 4.653-5.12s-2.083-5.12-4.653-5.12c-2.569 0-4.652 2.292-4.652 5.12s2.083 5.12 4.652 5.12z"></path>
</symbol>
<symbol id="icon-email" viewBox="0 0 28 32">
<path fill="none" stroke="#7a9ca5" style="stroke: var(--color3, #7a9ca5)" stroke-linejoin="round" stroke-linecap="round" stroke-miterlimit="4" stroke-width="1.3617" d="M4.652 5.76h18.61c1.279 0 2.326 1.152 2.326 2.56v15.36c0 1.408-1.047 2.56-2.326 2.56h-18.61c-1.279 0-2.326-1.152-2.326-2.56v-15.36c0-1.408 1.047-2.56 2.326-2.56z"></path>
<path fill="none" stroke="#7a9ca5" style="stroke: var(--color3, #7a9ca5)" stroke-linejoin="round" stroke-linecap="round" stroke-miterlimit="4" stroke-width="1.3617" d="M25.589 8.32l-11.631 8.96-11.631-8.96"></path>
</symbol>
<symbol id="icon-phone" viewBox="0 0 28 32">
<path fill="none" stroke="#7a9ca5" style="stroke: var(--color3, #7a9ca5)" stroke-linejoin="round" stroke-linecap="round" stroke-miterlimit="4" stroke-width="1.3617" d="M25.589 22.298v3.84c0.001 0.357-0.065 0.709-0.195 1.036s-0.32 0.62-0.559 0.861c-0.239 0.241-0.52 0.425-0.827 0.539s-0.632 0.157-0.955 0.125c-3.579-0.428-7.017-1.774-10.038-3.93-2.81-1.965-5.193-4.587-6.979-7.68-1.966-3.339-3.189-7.141-3.571-11.098-0.029-0.354 0.009-0.711 0.112-1.048s0.269-0.646 0.486-0.909c0.218-0.263 0.483-0.472 0.778-0.616s0.615-0.218 0.938-0.218h3.489c0.564-0.006 1.112 0.214 1.54 0.619s0.708 0.968 0.787 1.583c0.147 1.229 0.42 2.435 0.814 3.597 0.156 0.458 0.19 0.956 0.098 1.435s-0.308 0.918-0.621 1.266l-1.477 1.626c1.656 3.205 4.067 5.858 6.979 7.68l1.477-1.626c0.316-0.344 0.716-0.581 1.15-0.683s0.887-0.065 1.304 0.107c1.055 0.433 2.152 0.734 3.268 0.896 0.565 0.088 1.081 0.401 1.45 0.88s0.565 1.091 0.551 1.718z"></path>
</symbol>
<symbol id="icon-notebook" viewBox="0 0 28 32">
<path fill="none" stroke="#7a9ca5" style="stroke: var(--color3, #7a9ca5)" stroke-linejoin="round" stroke-linecap="round" stroke-miterlimit="4" stroke-width="1.3617" d="M2.326 4.48h6.979c1.234 0 2.417 0.539 3.29 1.5s1.363 2.262 1.363 3.62v17.92c0-1.018-0.368-1.995-1.022-2.715s-1.542-1.125-2.467-1.125h-8.142v-19.2z"></path>
<path fill="none" stroke="#7a9ca5" style="stroke: var(--color3, #7a9ca5)" stroke-linejoin="round" stroke-linecap="round" stroke-miterlimit="4" stroke-width="1.3617" d="M25.589 4.48h-6.979c-1.234 0-2.417 0.539-3.29 1.5s-1.363 2.262-1.363 3.62v17.92c0-1.018 0.368-1.995 1.022-2.715s1.542-1.125 2.467-1.125h8.142v-19.2z"></path>
</symbol>
<symbol id="icon-note" viewBox="0 0 28 32">
<path fill="none" stroke="#7a9ca5" style="stroke: var(--color3, #7a9ca5)" stroke-linejoin="round" stroke-linecap="round" stroke-miterlimit="4" stroke-width="1.3913" d="M12.754 5.778h-8.116c-0.615 0-1.205 0.269-1.64 0.748s-0.679 1.129-0.679 1.807v17.889c0 0.678 0.244 1.328 0.679 1.807s1.025 0.749 1.64 0.749h16.232c0.615 0 1.205-0.269 1.64-0.749s0.679-1.129 0.679-1.807v-8.944"></path>
<path fill="none" stroke="#7a9ca5" style="stroke: var(--color3, #7a9ca5)" stroke-linejoin="round" stroke-linecap="round" stroke-miterlimit="4" stroke-width="1.3913" d="M21.45 3.861c0.461-0.508 1.087-0.794 1.739-0.794s1.278 0.286 1.739 0.794c0.461 0.508 0.72 1.198 0.72 1.917s-0.259 1.408-0.72 1.917l-11.014 12.139-4.638 1.278 1.159-5.111 11.014-12.139z"></path>
</symbol>
<symbol id="icon-instagram" viewBox="0 0 30 32">
<path d="M15.111 8.191c-4.222 0-7.587 3.431-7.587 7.587 0 4.222 3.365 7.587 7.587 7.587 4.156 0 7.587-3.365 7.587-7.587 0-4.156-3.431-7.587-7.587-7.587zM15.111 20.726c-2.705 0-4.948-2.177-4.948-4.948 0-2.705 2.177-4.882 4.948-4.882 2.705 0 4.882 2.177 4.882 4.882 0 2.771-2.177 4.948-4.882 4.948zM24.743 7.927c0-0.99-0.792-1.781-1.781-1.781s-1.781 0.792-1.781 1.781 0.792 1.781 1.781 1.781c0.99 0 1.781-0.792 1.781-1.781zM29.757 9.708c-0.132-2.375-0.66-4.486-2.375-6.201s-3.826-2.243-6.201-2.375c-2.441-0.132-9.764-0.132-12.205 0-2.375 0.132-4.42 0.66-6.201 2.375-1.715 1.715-2.243 3.826-2.375 6.201-0.132 2.441-0.132 9.764 0 12.205 0.132 2.375 0.66 4.42 2.375 6.201 1.781 1.715 3.826 2.243 6.201 2.375 2.441 0.132 9.764 0.132 12.205 0 2.375-0.132 4.486-0.66 6.201-2.375 1.715-1.781 2.243-3.826 2.375-6.201 0.132-2.441 0.132-9.764 0-12.205zM26.59 24.486c-0.462 1.319-1.517 2.309-2.771 2.837-1.979 0.792-6.597 0.594-8.708 0.594-2.177 0-6.795 0.198-8.708-0.594-1.319-0.528-2.309-1.517-2.837-2.837-0.792-1.913-0.594-6.531-0.594-8.708 0-2.111-0.198-6.729 0.594-8.708 0.528-1.253 1.517-2.243 2.837-2.771 1.913-0.792 6.531-0.594 8.708-0.594 2.111 0 6.729-0.198 8.708 0.594 1.253 0.462 2.243 1.517 2.771 2.771 0.792 1.979 0.594 6.597 0.594 8.708 0 2.177 0.198 6.795-0.594 8.708z"></path>
</symbol>
<symbol id="icon-call" viewBox="0 0 31 32">
<path fill="none" stroke="#7a9ca5" style="stroke: var(--color3, #7a9ca5)" stroke-linejoin="round" stroke-linecap="round" stroke-miterlimit="4" stroke-width="2.56" d="M19.264 7.040c1.25 0.244 2.399 0.855 3.3 1.756s1.512 2.050 1.756 3.3l-5.056-5.056zM19.264 1.92c2.598 0.289 5.020 1.452 6.869 3.299s3.015 4.268 3.307 6.865l-10.176-10.163zM28.16 22.298v3.84c0.001 0.356-0.072 0.709-0.214 1.036s-0.352 0.62-0.615 0.861c-0.263 0.241-0.573 0.424-0.911 0.539s-0.695 0.157-1.050 0.125c-3.939-0.428-7.722-1.774-11.046-3.93-3.093-1.965-5.715-4.587-7.68-7.68-2.163-3.339-3.509-7.141-3.93-11.098-0.032-0.354 0.010-0.711 0.124-1.048s0.296-0.646 0.535-0.909c0.24-0.263 0.531-0.472 0.856-0.616s0.677-0.218 1.032-0.218h3.84c0.621-0.006 1.223 0.214 1.694 0.619s0.779 0.968 0.866 1.583c0.162 1.229 0.463 2.436 0.896 3.597 0.172 0.458 0.21 0.956 0.107 1.435s-0.339 0.918-0.683 1.266l-1.626 1.626c1.822 3.204 4.475 5.858 7.68 7.68l1.626-1.626c0.348-0.344 0.787-0.581 1.266-0.683s0.977-0.065 1.435 0.107c1.161 0.433 2.368 0.734 3.597 0.896 0.622 0.088 1.19 0.401 1.596 0.88s0.622 1.091 0.606 1.718z"></path>
</symbol>
<symbol id="icon-check" viewBox="0 0 45 32">
<path fill="none" stroke="#fff" style="stroke: var(--color1, #fff)" stroke-linejoin="round" stroke-linecap="round" stroke-miterlimit="4" stroke-width="4.1739" d="M41.739 2.783l-26.783 26.435-12.174-12.016"></path>
</symbol>
<symbol id="icon-star1" viewBox="0 0 34 32">
<path fill="#fff" style="fill: var(--color1, #fff)" d="M33.451 12.885l-11.218-0.957-4.384-10.214-4.384 10.229-11.218 0.941 8.519 7.298-2.559 10.846 9.642-5.755 9.642 5.755-2.543-10.846 8.503-7.298zM17.849 22.389v-14.349l2.668 6.233 6.834 0.586-5.18 4.443 1.56 6.603-5.882-3.518z"></path>
</symbol>
</defs>
</svg>
